<svg width="40" height="40" viewBox="0 0 40 40" fill="none" xmlns="http://www.w3.org/2000/svg">
<g id="HeartOutline">
<path id="Vector" d="M7.19673 10.5302C6.50028 11.2267 5.94783 12.0535 5.57091 12.9634C5.194 13.8734 5 14.8486 5 15.8336C5 16.8185 5.194 17.7938 5.57091 18.7037C5.94783 19.6137 6.50028 20.4405 7.19673 21.1369L20.0001 33.9402L32.8034 21.1369C34.2099 19.7304 35.0001 17.8227 35.0001 15.8336C35.0001 13.8444 34.2099 11.9368 32.8034 10.5302C31.3969 9.1237 29.4892 8.33352 27.5001 8.33352C25.5109 8.33352 23.6033 9.1237 22.1967 10.5302L20.0001 12.7269L17.8034 10.5302C17.107 9.83378 16.2802 9.28132 15.3702 8.90441C14.4603 8.52749 13.485 8.3335 12.5001 8.3335C11.5151 8.3335 10.5399 8.52749 9.62992 8.90441C8.71997 9.28132 7.89317 9.83378 7.19673 10.5302Z" stroke="#020A0A" stroke-width="2" stroke-linecap="round" stroke-linejoin="round"/>
</g>
</svg>
