<svg width="40" height="40" viewBox="0 0 40 40" fill="none" xmlns="http://www.w3.org/2000/svg">
<g id="HeartOutline">
<g id="Vector">
<mask id="path-1-inside-1_125_1287" fill="white">
<path d="M7.19673 10.5302C6.50028 11.2267 5.94783 12.0535 5.57091 12.9634C5.194 13.8734 5 14.8486 5 15.8336C5 16.8185 5.194 17.7938 5.57091 18.7037C5.94783 19.6137 6.50028 20.4405 7.19673 21.1369L20.0001 33.9402L32.8034 21.1369C34.2099 19.7304 35.0001 17.8227 35.0001 15.8336C35.0001 13.8444 34.2099 11.9368 32.8034 10.5302C31.3969 9.1237 29.4892 8.33352 27.5001 8.33352C25.5109 8.33352 23.6033 9.1237 22.1967 10.5302L20.0001 12.7269L17.8034 10.5302C17.107 9.83378 16.2802 9.28132 15.3702 8.90441C14.4603 8.52749 13.485 8.3335 12.5001 8.3335C11.5151 8.3335 10.5399 8.52749 9.62992 8.90441C8.71997 9.28132 7.89317 9.83378 7.19673 10.5302Z"/>
</mask>
<path d="M7.19673 10.5302L14.2678 17.6013L14.2678 17.6013L7.19673 10.5302ZM7.19673 21.1369L14.2678 14.0658L14.2678 14.0658L7.19673 21.1369ZM20.0001 33.9402L12.929 41.0113C14.8044 42.8867 17.3479 43.9402 20.0001 43.9402C22.6522 43.9402 25.1958 42.8867 27.0711 41.0113L20.0001 33.9402ZM32.8034 21.1369L25.7323 14.0658V14.0658L32.8034 21.1369ZM35.0001 15.8336H25.0001H35.0001ZM22.1967 10.5302L15.1257 3.45916L15.1257 3.45916L22.1967 10.5302ZM20.0001 12.7269L12.929 19.798C14.8044 21.6733 17.3479 22.7269 20.0001 22.7269C22.6522 22.7269 25.1958 21.6733 27.0711 19.798L20.0001 12.7269ZM17.8034 10.5302L10.7323 17.6013L10.7323 17.6013L17.8034 10.5302ZM12.5001 8.3335V-1.6665V8.3335ZM0.125707 3.45912C-1.49934 5.08414 -2.7884 7.01334 -3.66787 9.13655L14.8097 16.7903C14.6841 17.0936 14.4999 17.3692 14.2678 17.6013L0.125707 3.45912ZM-3.66787 9.13655C-4.54734 11.2598 -5 13.5354 -5 15.8336H15C15 16.1619 14.9353 16.487 14.8097 16.7903L-3.66787 9.13655ZM-5 15.8336C-5 18.1317 -4.54734 20.4074 -3.66787 22.5306L14.8097 14.8768C14.9353 15.1802 15 15.5053 15 15.8336H-5ZM-3.66787 22.5306C-2.7884 24.6538 -1.49934 26.583 0.125707 28.208L14.2678 14.0658C14.4999 14.2979 14.6841 14.5735 14.8097 14.8768L-3.66787 22.5306ZM0.125663 28.208L12.929 41.0113L27.0711 26.8692L14.2678 14.0658L0.125663 28.208ZM27.0711 41.0113L39.8745 28.208L25.7323 14.0658L12.929 26.8692L27.0711 41.0113ZM39.8745 28.208C43.1564 24.9261 45.0001 20.4749 45.0001 15.8336H25.0001C25.0001 15.1705 25.2635 14.5347 25.7323 14.0658L39.8745 28.208ZM45.0001 15.8336C45.0001 11.1923 43.1564 6.74106 39.8745 3.45916L25.7323 17.6013C25.2635 17.1325 25.0001 16.4966 25.0001 15.8336H45.0001ZM39.8745 3.45916C36.5926 0.177267 32.1414 -1.66648 27.5001 -1.66648V18.3335C26.837 18.3335 26.2012 18.0701 25.7323 17.6013L39.8745 3.45916ZM27.5001 -1.66648C22.8588 -1.66648 18.4076 0.177264 15.1257 3.45916L29.2678 17.6013C28.799 18.0701 28.1631 18.3335 27.5001 18.3335V-1.66648ZM15.1257 3.45916L12.929 5.65583L27.0711 19.798L29.2678 17.6013L15.1257 3.45916ZM27.0711 5.65583L24.8745 3.45916L10.7323 17.6013L12.929 19.798L27.0711 5.65583ZM24.8745 3.4592C23.2495 1.83415 21.3203 0.545094 19.1971 -0.334375L11.5433 18.1432C11.24 18.0176 10.9644 17.8334 10.7323 17.6013L24.8745 3.4592ZM19.1971 -0.334375C17.0739 -1.21385 14.7982 -1.6665 12.5001 -1.6665V18.3335C12.1718 18.3335 11.8467 18.2688 11.5433 18.1432L19.1971 -0.334375ZM12.5001 -1.6665C10.2019 -1.6665 7.92627 -1.21385 5.80305 -0.334375L13.4568 18.1432C13.1535 18.2688 12.8284 18.3335 12.5001 18.3335V-1.6665ZM5.80305 -0.334375C3.67984 0.545095 1.75065 1.83415 0.12562 3.4592L14.2678 17.6013C14.0357 17.8334 13.7601 18.0176 13.4568 18.1432L5.80305 -0.334375Z" fill="#833F34" mask="url(#path-1-inside-1_125_1287)"/>
</g>
</g>
</svg>
