<svg width="40" height="40" viewBox="0 0 40 40" fill="none" xmlns="http://www.w3.org/2000/svg">
<g id="HeartOutline">
<path id="Vector" d="M7.19661 10.53C6.50016 11.2264 5.94771 12.0532 5.57079 12.9632C5.19387 13.8731 4.99988 14.8484 4.99988 15.8333C4.99988 16.8182 5.19387 17.7935 5.57079 18.7035C5.94771 19.6134 6.50016 20.4402 7.19661 21.1367L19.9999 33.94L32.8033 21.1367C34.2098 19.7301 35 17.8225 35 15.8333C35 13.8442 34.2098 11.9365 32.8033 10.53C31.3967 9.12345 29.4891 8.33327 27.4999 8.33327C25.5108 8.33327 23.6031 9.12345 22.1966 10.53L19.9999 12.7267L17.8033 10.53C17.1068 9.83353 16.28 9.28108 15.3701 8.90416C14.4601 8.52725 13.4849 8.33325 12.4999 8.33325C11.515 8.33325 10.5397 8.52725 9.6298 8.90416C8.71985 9.28108 7.89305 9.83353 7.19661 10.53Z" stroke="#F9F8F3" stroke-width="2" stroke-linecap="round" stroke-linejoin="round"/>
</g>
</svg>
