<svg width="16" height="16" viewBox="0 0 16 16" fill="none" xmlns="http://www.w3.org/2000/svg">
<g id="solar:copyright-outline" clip-path="url(#clip0_179_2688)">
<g id="Group">
<path id="Vector" fill-rule="evenodd" clip-rule="evenodd" d="M0.833496 8.00016C0.833496 4.04216 4.04216 0.833496 8.00016 0.833496C11.9582 0.833496 15.1668 4.04216 15.1668 8.00016C15.1668 11.9582 11.9582 15.1668 8.00016 15.1668C4.04216 15.1668 0.833496 11.9582 0.833496 8.00016ZM8.00016 1.8335C6.36466 1.8335 4.79615 2.4832 3.63967 3.63967C2.4832 4.79615 1.8335 6.36466 1.8335 8.00016C1.8335 9.63566 2.4832 11.2042 3.63967 12.3607C4.79615 13.5171 6.36466 14.1668 8.00016 14.1668C9.63566 14.1668 11.2042 13.5171 12.3607 12.3607C13.5171 11.2042 14.1668 9.63566 14.1668 8.00016C14.1668 6.36466 13.5171 4.79615 12.3607 3.63967C11.2042 2.4832 9.63566 1.8335 8.00016 1.8335Z" fill="#808080"/>
<path id="Vector_2" fill-rule="evenodd" clip-rule="evenodd" d="M8.19083 5.8335C6.8555 5.8335 5.8335 6.8355 5.8335 8.00017C5.8335 9.16483 6.8555 10.1668 8.19083 10.1668C8.5315 10.1668 8.85416 10.1002 9.14416 9.98217C9.20496 9.95735 9.27006 9.94475 9.33573 9.94508C9.4014 9.94542 9.46637 9.95869 9.52691 9.98413C9.58745 10.0096 9.64239 10.0467 9.68859 10.0934C9.73479 10.14 9.77134 10.1954 9.79616 10.2562C9.82098 10.317 9.83358 10.3821 9.83325 10.4477C9.83291 10.5134 9.81964 10.5784 9.7942 10.6389C9.76875 10.6995 9.73163 10.7544 9.68496 10.8006C9.63828 10.8468 9.58296 10.8833 9.52216 10.9082C9.0993 11.0797 8.64716 11.1676 8.19083 11.1668C6.3695 11.1668 4.8335 9.78083 4.8335 8.00017C4.8335 6.2195 6.3695 4.8335 8.19083 4.8335C8.64716 4.83278 9.0993 4.92062 9.52216 5.09217C9.64505 5.1422 9.74302 5.23901 9.79453 5.36128C9.84604 5.48356 9.84687 5.62128 9.79683 5.74417C9.74679 5.86705 9.64999 5.96502 9.52772 6.01653C9.40544 6.06804 9.26771 6.06887 9.14483 6.01883C8.84185 5.89581 8.51784 5.83286 8.19083 5.8335Z" fill="#808080"/>
</g>
</g>
<defs>
<clipPath id="clip0_179_2688">
<rect width="16" height="16" fill="white"/>
</clipPath>
</defs>
</svg>
